<svg xmlns="http://www.w3.org/2000/svg" xmlns:xlink="http://www.w3.org/1999/xlink" width="300" zoomAndPan="magnify" viewBox="0 0 224.87999 112.499997" height="150" preserveAspectRatio="xMidYMid meet" version="1.0"><defs><clipPath id="id1"><path d="M 70 67 L 209 67 L 209 100.582031 L 70 100.582031 Z M 70 67 " clip-rule="nonzero"/></clipPath><clipPath id="id2"><path d="M 180 30.394531 L 204 30.394531 L 204 61 L 180 61 Z M 180 30.394531 " clip-rule="nonzero"/></clipPath><clipPath id="id3"><path d="M 21.945312 29 L 57.785156 29 L 57.785156 100.582031 L 21.945312 100.582031 Z M 21.945312 29 " clip-rule="nonzero"/></clipPath><clipPath id="id4"><path d="M 34 7.992188 L 46 7.992188 L 46 27 L 34 27 Z M 34 7.992188 " clip-rule="nonzero"/></clipPath></defs><g clip-path="url(#id1)"><path stroke-linecap="butt" transform="matrix(0.601833, 0, 0, 0.601833, 40.712983, 67.214003)" fill="none" stroke-linejoin="miter" d="M 64.350815 26.009196 C 64.350815 22.711976 65.746292 19.953475 68.550227 17.740183 C 71.347672 15.520401 75.131687 14.404019 79.908762 14.404019 C 84.679347 14.404019 88.534758 15.494438 91.462015 17.675277 C 94.402253 19.849625 95.959995 22.815825 96.135241 26.59335 L 84.478138 26.59335 C 84.341836 25.314703 83.887495 24.444964 83.128095 23.977641 C 82.381677 23.510319 81.252315 23.276657 79.746497 23.276657 C 76.760825 23.276657 75.267989 24.18534 75.267989 26.009196 C 75.267989 27.644825 77.091845 28.774188 80.739558 29.397285 C 84.426214 30.026872 87.781849 30.980989 90.812956 32.272617 C 92.364207 32.895714 93.655835 33.921227 94.70082 35.368629 C 95.752296 36.80954 96.278034 38.581472 96.278034 40.671442 C 96.278034 44.130927 94.785198 46.967316 91.806016 49.167626 C 88.833325 51.367937 85.075273 52.471337 80.54484 52.471337 C 76.007917 52.471337 72.223902 51.439333 69.199286 49.381816 C 66.181161 47.304827 64.539042 44.247758 64.266437 40.197629 L 75.93652 40.197629 C 76.248069 42.469336 77.851245 43.60519 80.739558 43.60519 C 82.070129 43.60519 83.17353 43.293641 84.043269 42.677035 C 84.906517 42.047448 85.341387 41.242614 85.341387 40.269026 C 85.341387 39.288946 84.620931 38.516566 83.18002 37.938903 C 81.732618 37.35475 79.986649 36.861465 77.935622 36.47203 C 75.897577 36.069613 73.840059 35.576328 71.769561 34.972703 C 69.705552 34.369078 67.959583 33.324093 66.512182 31.837747 C 65.07127 30.351402 64.350815 28.404225 64.350815 26.009196 Z M 124.856107 40.197629 C 126.504717 38.607434 127.329023 36.342218 127.329023 33.414961 C 127.329023 30.474723 126.504717 28.215997 124.856107 26.645274 C 123.213988 25.06157 121.325226 24.269718 119.189821 24.269718 C 117.060907 24.269718 115.172145 25.068061 113.523535 26.677727 C 111.887906 28.274413 111.070091 30.539629 111.070091 33.479867 C 111.070091 36.407124 111.887906 38.659359 113.523535 40.236573 C 115.172145 41.807296 117.060907 42.592657 119.189821 42.592657 C 121.325226 42.592657 123.213988 41.794315 124.856107 40.197629 Z M 104.397763 47.136071 C 101.107033 43.572737 99.464914 39.016341 99.464914 33.466886 C 99.464914 27.904449 101.107033 23.348054 104.397763 19.778229 C 107.682003 16.195422 111.693188 14.404019 116.418339 14.404019 C 121.162961 14.404019 124.797692 16.156479 127.329023 19.661398 L 127.329023 14.799945 L 138.732992 14.799945 L 138.732992 52.004015 L 127.329023 52.004015 L 127.329023 46.597352 C 124.570521 50.511179 120.883865 52.471337 116.262564 52.471337 C 111.641263 52.471337 107.682003 50.692915 104.397763 47.136071 Z M 172.328292 14.799945 L 183.725771 14.799945 L 183.725771 52.004015 L 172.328292 52.004015 L 172.328292 46.532446 C 169.965717 50.446273 166.207665 52.406431 161.054135 52.406431 C 156.789817 52.406431 153.336822 50.984992 150.688661 48.142113 C 148.053481 45.286253 146.735891 41.41786 146.735891 36.536936 L 146.735891 14.799945 L 158.061973 14.799945 L 158.061973 35.011647 C 158.061973 37.406675 158.69156 39.262984 159.963716 40.574083 C 161.235872 41.878692 162.97535 42.527751 165.188642 42.527751 C 167.408424 42.527751 169.160884 41.878692 170.426549 40.574083 C 171.698705 39.262984 172.328292 37.406675 172.328292 35.011647 Z M 194.47419 47.278864 C 191.034177 43.806398 189.320661 39.185097 189.320661 33.414961 C 189.320661 27.631844 191.034177 23.023524 194.47419 19.583511 C 197.927185 16.130516 202.386221 14.404019 207.851299 14.404019 C 212.388222 14.404019 216.230652 15.526891 219.372099 17.772636 C 222.533017 20.018381 224.629478 23.231223 225.661482 27.411164 L 213.322868 27.411164 C 212.258411 25.184891 210.512441 24.075 208.07847 24.075 C 205.66397 24.075 203.859585 24.931758 202.678298 26.645274 C 201.503501 28.345809 200.919347 30.598044 200.919347 33.40198 C 200.919347 36.199425 201.503501 38.45166 202.678298 40.171667 C 203.859585 41.885183 205.586083 42.741941 207.851299 42.741941 C 209.272738 42.741941 210.38263 42.495298 211.174482 42.008504 C 211.979315 41.52171 212.69328 40.65197 213.322868 39.399286 L 225.661482 39.399286 C 224.629478 43.397491 222.513545 46.57139 219.307193 48.940456 C 216.120312 51.29654 212.303845 52.471337 207.851299 52.471337 C 202.386221 52.471337 197.927185 50.738349 194.47419 47.278864 Z M 246.178241 52.471337 C 240.758597 52.471337 236.306052 50.731859 232.833585 47.246411 C 229.3741 43.754473 227.641112 39.120191 227.641112 33.350055 C 227.641112 27.566938 229.361119 22.965109 232.801132 19.551058 C 236.254127 16.117535 240.713163 14.404019 246.178241 14.404019 C 251.649809 14.404019 256.180242 16.091573 259.769539 19.46668 C 263.371817 22.841788 265.169711 27.527995 265.169711 33.531792 C 265.169711 34.816929 265.085334 36.024179 264.910088 37.140561 L 239.311195 37.140561 C 239.538366 38.77619 240.271803 40.126233 241.511506 41.177708 C 242.757699 42.216203 244.101252 42.741941 245.548654 42.741941 C 246.989565 42.741941 248.067003 42.592657 248.767987 42.300581 C 249.481952 42.008504 250.00769 41.716427 250.345201 41.437332 C 250.682711 41.145255 251.117581 40.664952 251.649809 40.002911 L 263.988424 40.002911 C 262.910985 43.735001 260.775581 46.746636 257.569229 49.037815 C 254.369367 51.328993 250.578862 52.471337 246.178241 52.471337 Z M 253.311401 29.994419 C 253.136155 28.274413 252.383246 26.865954 251.046184 25.782026 C 249.715613 24.685116 248.131909 24.139906 246.308053 24.139906 C 244.484197 24.139906 242.952417 24.685116 241.706224 25.782026 C 240.466521 26.865954 239.69414 28.274413 239.376101 29.994419 Z M 253.311401 29.994419 " stroke="rgb(95.689392%, 95.689392%, 95.689392%)" stroke-width="2.5" stroke-opacity="1" stroke-miterlimit="4"/></g><path fill="rgb(95.689392%, 95.689392%, 95.689392%)" d="M 75.574219 44.613281 C 75.574219 42.632812 76.414062 40.976562 78.101562 39.640625 C 79.789062 38.304688 82.066406 37.632812 84.941406 37.632812 C 87.816406 37.632812 90.136719 38.289062 91.902344 39.605469 C 93.667969 40.914062 94.605469 42.703125 94.710938 44.976562 L 87.691406 44.976562 C 87.609375 44.199219 87.339844 43.671875 86.886719 43.394531 C 86.429688 43.109375 85.75 42.96875 84.839844 42.96875 C 83.046875 42.96875 82.152344 43.515625 82.152344 44.613281 C 82.152344 45.605469 83.25 46.289062 85.441406 46.65625 C 87.664062 47.03125 89.683594 47.609375 91.5 48.382812 C 92.4375 48.757812 93.222656 49.382812 93.847656 50.253906 C 94.472656 51.121094 94.789062 52.183594 94.789062 53.4375 C 94.789062 55.523438 93.894531 57.230469 92.101562 58.558594 C 90.3125 59.878906 88.050781 60.539062 85.324219 60.539062 C 82.597656 60.539062 80.320312 59.917969 78.5 58.675781 C 76.683594 57.429688 75.695312 55.59375 75.535156 53.160156 L 82.558594 53.160156 C 82.742188 54.523438 83.703125 55.207031 85.441406 55.207031 C 86.246094 55.207031 86.90625 55.019531 87.429688 54.644531 C 87.949219 54.269531 88.210938 53.785156 88.210938 53.199219 C 88.210938 52.609375 87.777344 52.144531 86.90625 51.796875 C 86.035156 51.449219 84.988281 51.152344 83.757812 50.917969 C 82.527344 50.675781 81.289062 50.371094 80.042969 50.007812 C 78.800781 49.648438 77.746094 49.019531 76.875 48.128906 C 76.007812 47.230469 75.574219 46.058594 75.574219 44.613281 Z M 75.574219 44.613281 " fill-opacity="1" fill-rule="nonzero"/><path fill="rgb(95.689392%, 95.689392%, 95.689392%)" d="M 112.800781 53.238281 C 113.710938 52.273438 114.164062 50.882812 114.164062 49.066406 C 114.164062 47.25 113.695312 45.867188 112.757812 44.917969 C 111.824219 43.96875 110.714844 43.492188 109.433594 43.492188 C 108.148438 43.492188 107.042969 43.96875 106.125 44.917969 C 105.203125 45.867188 104.742188 47.25 104.742188 49.066406 C 104.742188 50.882812 105.214844 52.273438 106.160156 53.238281 C 107.113281 54.199219 108.226562 54.679688 109.511719 54.679688 C 110.796875 54.679688 111.890625 54.199219 112.800781 53.238281 Z M 101.152344 57.371094 C 98.890625 55.257812 97.761719 52.476562 97.761719 49.027344 C 97.761719 45.574219 98.882812 42.816406 101.128906 40.742188 C 103.375 38.671875 106.15625 37.632812 109.46875 37.632812 C 112.785156 37.632812 115.5625 38.671875 117.792969 40.742188 C 120.027344 42.816406 121.144531 45.574219 121.144531 49.027344 C 121.144531 52.476562 120.035156 55.257812 117.816406 57.371094 C 115.597656 59.484375 112.832031 60.539062 109.511719 60.539062 C 106.199219 60.539062 103.410156 59.484375 101.152344 57.371094 Z M 101.152344 57.371094 " fill-opacity="1" fill-rule="nonzero"/><path fill="rgb(95.689392%, 95.689392%, 95.689392%)" d="M 140.761719 37.871094 L 147.621094 37.871094 L 147.621094 60.257812 L 140.761719 60.257812 L 140.761719 56.96875 C 139.34375 59.320312 137.085938 60.496094 133.984375 60.496094 C 131.414062 60.496094 129.332031 59.644531 127.742188 57.933594 C 126.152344 56.21875 125.359375 53.894531 125.359375 50.953125 L 125.359375 37.871094 L 132.183594 37.871094 L 132.183594 50.027344 C 132.183594 51.476562 132.558594 52.59375 133.320312 53.378906 C 134.082031 54.167969 135.132812 54.5625 136.472656 54.5625 C 137.808594 54.5625 138.855469 54.167969 139.617188 53.378906 C 140.378906 52.59375 140.761719 51.476562 140.761719 50.027344 Z M 140.761719 37.871094 " fill-opacity="1" fill-rule="nonzero"/><path fill="rgb(95.689392%, 95.689392%, 95.689392%)" d="M 160.5 37.871094 L 160.5 41.160156 C 161.917969 38.808594 164.175781 37.632812 167.277344 37.632812 C 169.847656 37.632812 171.925781 38.492188 173.511719 40.203125 C 175.105469 41.914062 175.902344 44.242188 175.902344 47.183594 L 175.902344 60.257812 L 169.085938 60.257812 L 169.085938 48.101562 C 169.085938 46.660156 168.703125 45.542969 167.941406 44.757812 C 167.179688 43.964844 166.128906 43.570312 164.789062 43.570312 C 163.453125 43.570312 162.40625 43.964844 161.644531 44.757812 C 160.882812 45.542969 160.5 46.660156 160.5 48.101562 L 160.5 60.257812 L 153.640625 60.257812 L 153.640625 37.871094 Z M 160.5 37.871094 " fill-opacity="1" fill-rule="nonzero"/><g clip-path="url(#id2)"><path fill="rgb(95.689392%, 95.689392%, 95.689392%)" d="M 195.359375 53.160156 C 196.351562 52.199219 196.847656 50.835938 196.847656 49.070312 C 196.847656 47.304688 196.351562 45.945312 195.359375 44.996094 C 194.371094 44.042969 193.234375 43.570312 191.953125 43.570312 C 190.667969 43.570312 189.527344 44.050781 188.539062 45.011719 C 187.550781 45.976562 187.054688 47.34375 187.054688 49.109375 C 187.054688 50.871094 187.550781 52.230469 188.539062 53.179688 C 189.527344 54.128906 190.667969 54.597656 191.953125 54.597656 C 193.234375 54.597656 194.371094 54.121094 195.359375 53.160156 Z M 183.046875 57.332031 C 181.066406 55.195312 180.078125 52.453125 180.078125 49.109375 C 180.078125 45.765625 181.066406 43.019531 183.046875 40.867188 C 185.027344 38.710938 187.441406 37.632812 190.289062 37.632812 C 193.136719 37.632812 195.324219 38.691406 196.847656 40.804688 L 196.847656 30.574219 L 203.707031 30.574219 L 203.707031 60.257812 L 196.847656 60.257812 L 196.847656 57.007812 C 195.1875 59.363281 192.96875 60.539062 190.1875 60.539062 C 187.40625 60.539062 185.027344 59.472656 183.046875 57.332031 Z M 183.046875 57.332031 " fill-opacity="1" fill-rule="nonzero"/></g><path fill="rgb(100%, 45.098877%, 8.239746%)" d="M 32.160156 30.121094 C 31.582031 30.121094 31.113281 29.660156 31.113281 29.089844 L 31.113281 25.066406 C 31.113281 23.964844 32.019531 23.070312 33.132812 23.070312 L 46.621094 23.070312 C 47.734375 23.070312 48.644531 23.964844 48.644531 25.066406 L 48.644531 29.089844 C 48.644531 29.660156 48.171875 30.121094 47.597656 30.121094 L 32.160156 30.121094 " fill-opacity="1" fill-rule="nonzero"/><path fill="rgb(95.689392%, 95.689392%, 95.689392%)" d="M 46.621094 22.039062 L 33.132812 22.039062 C 31.441406 22.039062 30.066406 23.398438 30.066406 25.066406 L 30.066406 29.089844 C 30.066406 30.230469 31.003906 31.15625 32.160156 31.15625 L 47.597656 31.15625 C 48.753906 31.15625 49.691406 30.230469 49.691406 29.089844 L 49.691406 25.066406 C 49.691406 23.398438 48.3125 22.039062 46.621094 22.039062 Z M 46.621094 24.105469 C 47.160156 24.105469 47.597656 24.535156 47.597656 25.066406 L 47.597656 29.089844 L 32.160156 29.089844 L 32.160156 25.066406 C 32.160156 24.535156 32.597656 24.105469 33.132812 24.105469 L 46.621094 24.105469 " fill-opacity="1" fill-rule="nonzero"/><path fill="rgb(100%, 45.098877%, 8.239746%)" d="M 30.21875 32.613281 C 29.640625 32.613281 29.171875 32.152344 29.171875 31.582031 L 29.171875 27.558594 C 29.171875 26.457031 30.078125 25.5625 31.191406 25.5625 L 48.566406 25.5625 C 49.679688 25.5625 50.585938 26.457031 50.585938 27.558594 L 50.585938 31.582031 C 50.585938 32.152344 50.117188 32.613281 49.539062 32.613281 L 30.21875 32.613281 " fill-opacity="1" fill-rule="nonzero"/><path fill="rgb(95.689392%, 95.689392%, 95.689392%)" d="M 48.566406 24.527344 L 31.191406 24.527344 C 29.5 24.527344 28.125 25.886719 28.125 27.558594 L 28.125 31.582031 C 28.125 32.722656 29.0625 33.648438 30.21875 33.648438 L 49.539062 33.648438 C 50.695312 33.648438 51.632812 32.722656 51.632812 31.582031 L 51.632812 27.558594 C 51.632812 25.886719 50.257812 24.527344 48.566406 24.527344 Z M 48.566406 26.597656 C 49.105469 26.597656 49.539062 27.027344 49.539062 27.558594 L 49.539062 31.582031 L 30.21875 31.582031 L 30.21875 27.558594 C 30.21875 27.027344 30.652344 26.597656 31.191406 26.597656 L 48.566406 26.597656 " fill-opacity="1" fill-rule="nonzero"/><path fill="rgb(100%, 45.098877%, 8.239746%)" d="M 29.914062 99.535156 C 25.796875 99.535156 23.03125 97.1875 23.03125 93.695312 L 23.03125 37.34375 C 23.03125 33.597656 26.121094 30.546875 29.914062 30.546875 L 49.84375 30.546875 C 53.636719 30.546875 56.726562 33.597656 56.726562 37.34375 L 56.726562 93.695312 C 56.726562 97.1875 53.960938 99.535156 49.84375 99.535156 L 29.914062 99.535156 " fill-opacity="1" fill-rule="nonzero"/><g clip-path="url(#id3)"><path fill="rgb(95.689392%, 95.689392%, 95.689392%)" d="M 49.84375 29.511719 L 29.914062 29.511719 C 25.542969 29.511719 21.988281 33.027344 21.988281 37.34375 L 21.988281 93.695312 C 21.988281 95.832031 22.882812 97.691406 24.511719 98.929688 C 25.921875 100.003906 27.789062 100.566406 29.914062 100.566406 L 49.84375 100.566406 C 51.96875 100.566406 53.835938 100.003906 55.246094 98.929688 C 56.875 97.691406 57.769531 95.832031 57.769531 93.695312 L 57.769531 37.34375 C 57.769531 33.027344 54.214844 29.511719 49.84375 29.511719 Z M 49.84375 31.582031 C 53.066406 31.582031 55.679688 34.160156 55.679688 37.34375 L 55.679688 93.695312 C 55.679688 96.878906 53.066406 98.5 49.84375 98.5 L 29.914062 98.5 C 26.691406 98.5 24.078125 96.878906 24.078125 93.695312 L 24.078125 37.34375 C 24.078125 34.160156 26.691406 31.582031 29.914062 31.582031 L 49.84375 31.582031 " fill-opacity="1" fill-rule="nonzero"/></g><path fill="rgb(100%, 45.098877%, 8.239746%)" d="M 36.355469 25.140625 C 36.046875 25.140625 35.753906 25.007812 35.554688 24.773438 C 35.355469 24.539062 35.269531 24.230469 35.324219 23.929688 L 37.773438 9.871094 C 37.859375 9.375 38.296875 9.015625 38.804688 9.015625 L 40.953125 9.015625 C 41.460938 9.015625 41.894531 9.375 41.984375 9.871094 L 44.433594 23.929688 C 44.488281 24.230469 44.402344 24.539062 44.203125 24.773438 C 44.003906 25.007812 43.710938 25.140625 43.402344 25.140625 L 36.355469 25.140625 " fill-opacity="1" fill-rule="nonzero"/><g clip-path="url(#id4)"><path fill="rgb(95.689392%, 95.689392%, 95.689392%)" d="M 40.953125 7.980469 L 38.804688 7.980469 C 37.789062 7.980469 36.917969 8.703125 36.742188 9.695312 L 34.289062 23.753906 C 34.1875 24.355469 34.355469 24.972656 34.753906 25.4375 C 35.148438 25.90625 35.738281 26.175781 36.355469 26.175781 L 43.402344 26.175781 C 44.019531 26.175781 44.605469 25.90625 45.003906 25.4375 C 45.402344 24.972656 45.570312 24.355469 45.464844 23.753906 L 43.015625 9.695312 C 42.839844 8.703125 41.96875 7.980469 40.953125 7.980469 Z M 40.953125 10.046875 L 43.402344 24.105469 L 36.355469 24.105469 L 38.804688 10.046875 L 40.953125 10.046875 " fill-opacity="1" fill-rule="nonzero"/></g></svg>