<?xml version="1.0" standalone="no"?>
<!DOCTYPE svg PUBLIC "-//W3C//DTD SVG 1.1//EN" "http://www.w3.org/Graphics/SVG/1.1/DTD/svg11.dtd">
<svg xmlns="http://www.w3.org/2000/svg" xmlns:xlink="http://www.w3.org/1999/xlink" width="375" zoomAndPan="magnify" viewBox="0 0 375 374.999991" height="375" preserveAspectRatio="xMidYMid meet" version="1.0"><defs><g><g id="id1"/></g><clipPath id="id2"><path d="M 53.214844 159 L 107.964844 159 L 107.964844 248 L 53.214844 248 Z M 53.214844 159 " clip-rule="nonzero"/></clipPath><clipPath id="id3"><path d="M 61 126.765625 L 100 126.765625 L 100 157 L 61 157 Z M 61 126.765625 " clip-rule="nonzero"/></clipPath></defs><g clip-path="url(#id2)"><path fill="rgb(100%, 45.098877%, 8.239746%)" d="M 105.242188 172.101562 C 104.613281 164.75 97.605469 159.628906 91.699219 159.8125 C 91.367188 159.8125 69.683594 159.792969 68.808594 159.820312 C 60.914062 159.707031 55.261719 167.917969 55.589844 173.144531 C 55.53125 174.917969 53.578125 232.429688 53.589844 234.210938 C 53.316406 241.601562 61.097656 248.09375 67.234375 247.582031 C 67.992188 247.582031 94.5 247.558594 94.5 247.558594 C 102.46875 247.53125 108.132812 238.675781 107.3125 233.34375 C 107.132812 229.339844 105.359375 172.660156 105.242188 172.101562 Z M 105.242188 172.101562 " fill-opacity="1" fill-rule="nonzero"/></g><g clip-path="url(#id3)"><path fill="rgb(100%, 45.098877%, 8.239746%)" d="M 69.203125 154.328125 L 91.707031 154.328125 C 94.5 154.328125 97.136719 154.941406 99.519531 156.011719 L 99.519531 151.585938 C 99.519531 150.070312 98.304688 148.84375 96.796875 148.84375 C 93.238281 148.84375 90.152344 146.414062 89.285156 142.9375 L 85.820312 128.976562 C 85.515625 127.757812 84.429688 126.902344 83.179688 126.902344 L 77.730469 126.902344 C 76.480469 126.902344 75.390625 127.757812 75.089844 128.976562 L 71.625 142.933594 C 70.757812 146.414062 67.671875 148.84375 64.109375 148.84375 C 62.605469 148.84375 61.386719 150.070312 61.386719 151.585938 L 61.386719 156.011719 C 63.773438 154.941406 66.410156 154.328125 69.203125 154.328125 Z M 69.203125 154.328125 " fill-opacity="1" fill-rule="nonzero"/></g><path stroke-linecap="butt" transform="matrix(0.75, 0, 0, 0.75, 97.011802, 192.499953)" fill="none" stroke-linejoin="miter" d="M 64.348851 26.010481 C 64.348851 22.713606 65.749893 19.953189 68.546768 17.744856 C 71.348852 15.515689 75.13531 14.406314 79.906144 14.406314 C 84.682186 14.406314 88.531145 15.494855 91.463437 17.677147 C 94.400937 19.849022 95.958228 22.817773 96.130103 26.593814 L 84.479061 26.593814 C 84.338436 25.317773 83.890519 24.442773 83.130103 23.974023 C 82.380103 23.510481 81.249894 23.276106 79.744686 23.276106 C 76.760311 23.276106 75.270727 24.187564 75.270727 26.010481 C 75.270727 27.645898 77.093644 28.776106 80.739477 29.395898 C 84.426978 30.026106 87.786353 30.98444 90.812395 32.276107 C 92.364478 32.895898 93.661353 33.927148 94.70302 35.369857 C 95.755103 36.812565 96.281145 38.57819 96.281145 40.67194 C 96.281145 44.135482 94.786353 46.963607 91.801978 49.166733 C 88.833228 51.369858 85.078019 52.474025 80.541561 52.474025 C 76.005102 52.474025 72.223852 51.442774 69.19781 49.380274 C 66.182185 47.307357 64.536351 44.250066 64.265518 40.20319 L 75.937394 40.20319 C 76.249894 42.468816 77.848852 43.604232 80.739477 43.604232 C 82.072811 43.604232 83.171769 43.291732 84.041561 42.677149 C 84.906144 42.04694 85.343644 41.244857 85.343644 40.26569 C 85.343644 39.291732 84.619686 38.51569 83.176978 37.937565 C 81.734269 37.354232 79.989477 36.864648 77.937394 36.474023 C 75.895727 36.072982 73.843644 35.572982 71.770727 34.979232 C 69.708227 34.369857 67.958227 33.322982 66.515518 31.833398 C 65.07281 30.349023 64.348851 28.406315 64.348851 26.010481 Z M 124.854064 40.20319 C 126.499897 38.604232 127.328022 36.343815 127.328022 33.416732 C 127.328022 30.474023 126.499897 28.218815 124.854064 26.645898 C 123.213439 25.062564 121.328022 24.270898 119.187397 24.270898 C 117.062397 24.270898 115.17698 25.072981 113.525938 26.677148 C 111.885313 28.270898 111.067604 30.541731 111.067604 33.479232 C 111.067604 36.411523 111.885313 38.661524 113.525938 40.23444 C 115.17698 41.807357 117.062397 42.593816 119.187397 42.593816 C 121.328022 42.593816 123.213439 41.79694 124.854064 40.20319 Z M 104.395729 47.135482 C 101.10927 43.572982 99.463437 39.020899 99.463437 33.463607 C 99.463437 27.906315 101.10927 23.343814 104.395729 19.776106 C 107.682188 16.19798 111.692604 14.406314 116.421771 14.406314 C 121.166563 14.406314 124.796772 16.156314 127.328022 19.661522 L 127.328022 14.796939 L 138.734273 14.796939 L 138.734273 52.000066 L 127.328022 52.000066 L 127.328022 46.599024 C 124.572814 50.515691 120.880105 52.474025 116.260313 52.474025 C 111.640521 52.474025 107.682188 50.692774 104.395729 47.135482 Z M 172.333233 14.796939 L 183.723859 14.796939 L 183.723859 52.000066 L 172.333233 52.000066 L 172.333233 46.531316 C 169.96865 50.447983 166.208233 52.406316 161.051983 52.406316 C 156.791566 52.406316 153.333232 50.984441 150.687399 48.140691 C 148.051982 45.291732 146.734273 41.42194 146.734273 36.541732 L 146.734273 14.796939 L 158.062399 14.796939 L 158.062399 35.010482 C 158.062399 37.406315 158.692608 39.260482 159.963441 40.572982 C 161.234274 41.875065 162.973858 42.526107 165.1874 42.526107 C 167.411358 42.526107 169.161358 41.875065 170.426983 40.572982 C 171.697817 39.260482 172.333233 37.406315 172.333233 35.010482 Z M 194.47386 47.281316 C 191.03636 43.807357 189.31761 39.187565 189.31761 33.416732 C 189.31761 27.630273 191.03636 23.020898 194.47386 19.583397 C 197.926985 16.130272 202.385319 14.406314 207.854069 14.406314 C 212.390528 14.406314 216.22907 15.531314 219.374903 17.776106 C 222.531153 20.020897 224.624904 23.234439 225.656154 27.411523 L 213.32282 27.411523 C 212.260319 25.187564 210.510319 24.072981 208.083236 24.072981 C 205.661361 24.072981 203.859277 24.932356 202.676985 26.645898 C 201.50511 28.349023 200.921777 30.599023 200.921777 33.395898 C 200.921777 36.197982 201.50511 38.45319 202.676985 40.166732 C 203.859277 41.880274 205.588444 42.739649 207.854069 42.739649 C 209.275944 42.739649 210.380111 42.494857 211.171778 42.005274 C 211.973861 41.520899 212.692611 40.651107 213.32282 39.401107 L 225.656154 39.401107 C 224.624904 43.395899 222.51032 46.572982 219.312403 48.942774 C 216.119695 51.296941 212.301986 52.474025 207.854069 52.474025 C 202.385319 52.474025 197.926985 50.739649 194.47386 47.281316 Z M 246.182197 52.474025 C 240.755113 52.474025 236.307196 50.729233 232.833237 47.250066 C 229.374904 43.755274 227.645737 39.119857 227.645737 33.349023 C 227.645737 27.567773 229.364487 22.968814 232.801987 19.546939 C 236.255113 16.119855 240.713446 14.406314 246.182197 14.406314 C 251.650947 14.406314 256.176989 16.093814 259.770739 19.468814 C 263.369698 22.843814 265.171781 27.526106 265.171781 33.526107 C 265.171781 34.817773 265.088448 36.026107 264.911365 37.14069 L 239.312405 37.14069 C 239.541571 38.781315 240.270738 40.125065 241.510321 41.177149 C 242.755113 42.218815 244.104072 42.739649 245.54678 42.739649 C 246.989488 42.739649 248.062405 42.593816 248.770738 42.302149 C 249.48428 42.005274 250.010322 41.718815 250.348864 41.437565 C 250.682197 41.145899 251.119697 40.666732 251.650947 40.005274 L 263.984281 40.005274 C 262.911364 43.739649 260.775948 46.750066 257.572822 49.036524 C 254.369697 51.328191 250.572822 52.474025 246.182197 52.474025 Z M 253.307197 29.994856 C 253.135322 28.270898 252.380114 26.864648 251.04678 25.781314 C 249.713447 24.687564 248.135322 24.140689 246.312405 24.140689 C 244.489488 24.140689 242.95303 24.687564 241.70303 25.781314 C 240.468655 26.864648 239.692613 28.270898 239.380113 29.994856 Z M 253.307197 29.994856 " stroke="rgb(95.689392%, 95.689392%, 95.689392%)" stroke-width="2.49999" stroke-opacity="1" stroke-miterlimit="4"/><g fill="rgb(95.689392%, 95.689392%, 95.689392%)" fill-opacity="1"><g transform="translate(138.60811, 183.832502)"><g><path d="M 1.84375 -19.5 C 1.84375 -21.96875 2.894531 -24.035156 5 -25.703125 C 7.101562 -27.367188 9.945312 -28.203125 13.53125 -28.203125 C 17.113281 -28.203125 20.003906 -27.382812 22.203125 -25.75 C 24.398438 -24.113281 25.566406 -21.878906 25.703125 -19.046875 L 16.953125 -19.046875 C 16.847656 -20.015625 16.507812 -20.671875 15.9375 -21.015625 C 15.375 -21.367188 14.53125 -21.546875 13.40625 -21.546875 C 11.164062 -21.546875 10.046875 -20.863281 10.046875 -19.5 C 10.046875 -18.269531 11.414062 -17.421875 14.15625 -16.953125 C 16.914062 -16.484375 19.429688 -15.765625 21.703125 -14.796875 C 22.867188 -14.328125 23.84375 -13.550781 24.625 -12.46875 C 25.40625 -11.382812 25.796875 -10.0625 25.796875 -8.5 C 25.796875 -5.894531 24.675781 -3.769531 22.4375 -2.125 C 20.207031 -0.476562 17.394531 0.34375 14 0.34375 C 10.601562 0.34375 7.769531 -0.425781 5.5 -1.96875 C 3.226562 -3.519531 1.992188 -5.8125 1.796875 -8.84375 L 10.546875 -8.84375 C 10.785156 -7.144531 11.988281 -6.296875 14.15625 -6.296875 C 15.15625 -6.296875 15.976562 -6.53125 16.625 -7 C 17.269531 -7.46875 17.59375 -8.066406 17.59375 -8.796875 C 17.59375 -9.535156 17.050781 -10.117188 15.96875 -10.546875 C 14.882812 -10.984375 13.578125 -11.347656 12.046875 -11.640625 C 10.515625 -11.941406 8.972656 -12.316406 7.421875 -12.765625 C 5.867188 -13.222656 4.550781 -14.007812 3.46875 -15.125 C 2.382812 -16.238281 1.84375 -17.695312 1.84375 -19.5 Z M 1.84375 -19.5 "/></g></g></g><g fill="rgb(95.689392%, 95.689392%, 95.689392%)" fill-opacity="1"><g transform="translate(166.353817, 183.832502)"><g><path d="M 20.5 -8.75 C 21.632812 -9.945312 22.203125 -11.675781 22.203125 -13.9375 C 22.203125 -16.207031 21.617188 -17.9375 20.453125 -19.125 C 19.285156 -20.3125 17.898438 -20.90625 16.296875 -20.90625 C 14.703125 -20.90625 13.328125 -20.3125 12.171875 -19.125 C 11.023438 -17.9375 10.453125 -16.207031 10.453125 -13.9375 C 10.453125 -11.675781 11.039062 -9.945312 12.21875 -8.75 C 13.40625 -7.550781 14.796875 -6.953125 16.390625 -6.953125 C 17.992188 -6.953125 19.363281 -7.550781 20.5 -8.75 Z M 5.96875 -3.59375 C 3.15625 -6.226562 1.75 -9.695312 1.75 -14 C 1.75 -18.300781 3.148438 -21.742188 5.953125 -24.328125 C 8.753906 -26.910156 12.21875 -28.203125 16.34375 -28.203125 C 20.476562 -28.203125 23.9375 -26.910156 26.71875 -24.328125 C 29.507812 -21.742188 30.90625 -18.300781 30.90625 -14 C 30.90625 -9.695312 29.519531 -6.226562 26.75 -3.59375 C 23.976562 -0.96875 20.523438 0.34375 16.390625 0.34375 C 12.265625 0.34375 8.789062 -0.96875 5.96875 -3.59375 Z M 5.96875 -3.59375 "/></g></g></g><g fill="rgb(95.689392%, 95.689392%, 95.689392%)" fill-opacity="1"><g transform="translate(198.998761, 183.832502)"><g><path d="M 22.703125 -27.90625 L 31.25 -27.90625 L 31.25 0 L 22.703125 0 L 22.703125 -4.09375 C 20.929688 -1.164062 18.113281 0.296875 14.25 0.296875 C 11.050781 0.296875 8.457031 -0.765625 6.46875 -2.890625 C 4.488281 -5.023438 3.5 -7.925781 3.5 -11.59375 L 3.5 -27.90625 L 12 -27.90625 L 12 -12.75 C 12 -10.945312 12.472656 -9.550781 13.421875 -8.5625 C 14.367188 -7.582031 15.675781 -7.09375 17.34375 -7.09375 C 19.007812 -7.09375 20.316406 -7.582031 21.265625 -8.5625 C 22.222656 -9.550781 22.703125 -10.945312 22.703125 -12.75 Z M 22.703125 -27.90625 "/></g></g></g><g fill="rgb(95.689392%, 95.689392%, 95.689392%)" fill-opacity="1"><g transform="translate(233.993338, 183.832502)"><g><path d="M 12.296875 -27.90625 L 12.296875 -23.796875 C 14.066406 -26.734375 16.882812 -28.203125 20.75 -28.203125 C 23.945312 -28.203125 26.535156 -27.132812 28.515625 -25 C 30.503906 -22.863281 31.5 -19.960938 31.5 -16.296875 L 31.5 0 L 23 0 L 23 -15.15625 C 23 -16.945312 22.523438 -18.332031 21.578125 -19.3125 C 20.628906 -20.300781 19.320312 -20.796875 17.65625 -20.796875 C 15.988281 -20.796875 14.675781 -20.300781 13.71875 -19.3125 C 12.769531 -18.332031 12.296875 -16.945312 12.296875 -15.15625 L 12.296875 0 L 3.75 0 L 3.75 -27.90625 Z M 12.296875 -27.90625 "/></g></g></g><g fill="rgb(95.689392%, 95.689392%, 95.689392%)" fill-opacity="1"><g transform="translate(268.987915, 183.832502)"><g><path d="M 20.75 -8.84375 C 21.976562 -10.050781 22.59375 -11.753906 22.59375 -13.953125 C 22.59375 -16.148438 21.976562 -17.835938 20.75 -19.015625 C 19.519531 -20.203125 18.101562 -20.796875 16.5 -20.796875 C 14.894531 -20.796875 13.476562 -20.195312 12.25 -19 C 11.019531 -17.800781 10.40625 -16.097656 10.40625 -13.890625 C 10.40625 -11.691406 11.019531 -10 12.25 -8.8125 C 13.476562 -7.632812 14.894531 -7.046875 16.5 -7.046875 C 18.101562 -7.046875 19.519531 -7.644531 20.75 -8.84375 Z M 5.390625 -3.65625 C 2.929688 -6.320312 1.703125 -9.738281 1.703125 -13.90625 C 1.703125 -18.070312 2.929688 -21.492188 5.390625 -24.171875 C 7.859375 -26.859375 10.867188 -28.203125 14.421875 -28.203125 C 17.972656 -28.203125 20.695312 -26.882812 22.59375 -24.25 L 22.59375 -37 L 31.15625 -37 L 31.15625 0 L 22.59375 0 L 22.59375 -4.046875 C 20.53125 -1.117188 17.765625 0.34375 14.296875 0.34375 C 10.828125 0.34375 7.859375 -0.988281 5.390625 -3.65625 Z M 5.390625 -3.65625 "/></g></g></g></svg>