<?xml version="1.0" standalone="no"?>
<!DOCTYPE svg PUBLIC "-//W3C//DTD SVG 1.1//EN" "http://www.w3.org/Graphics/SVG/1.1/DTD/svg11.dtd">
<svg xmlns="http://www.w3.org/2000/svg" xmlns:xlink="http://www.w3.org/1999/xlink" width="375" zoomAndPan="magnify" viewBox="0 0 375 374.999991" height="375" preserveAspectRatio="xMidYMid meet" version="1.0"><defs><g><g id="id1"/></g></defs><path stroke-linecap="butt" transform="matrix(1.503746, 0, 0, 1.503746, -60.146413, 185.662898)" fill="none" stroke-linejoin="miter" d="M 64.348358 26.008736 C 64.348358 22.712282 65.748507 19.956144 68.548805 17.742922 C 71.346505 15.519309 75.133921 14.404904 79.905857 14.404904 C 84.680391 14.404904 88.532749 15.495929 91.462931 17.67798 C 94.400906 19.847042 95.959514 22.818787 96.133558 26.595812 L 84.48037 26.595812 C 84.340096 25.315156 83.888099 24.442336 83.129577 23.974754 C 82.381446 23.509769 81.251455 23.275978 79.744801 23.275978 C 76.760068 23.275978 75.269 24.187763 75.269 26.008736 C 75.269 27.647872 77.092571 28.775265 80.737115 29.39611 C 84.425819 30.024748 87.784618 30.983292 90.810914 32.274338 C 92.361728 32.892586 93.65797 33.923864 94.699639 35.368174 C 95.751699 36.809886 96.279028 38.578905 96.279028 40.672634 C 96.279028 44.132743 94.78796 46.966811 91.803227 49.167045 C 88.831483 51.369876 85.077836 52.471292 80.542289 52.471292 C 76.006741 52.471292 72.224521 51.440014 69.198225 49.380054 C 66.182319 47.307107 64.537989 44.247041 64.26783 40.199857 L 75.936604 40.199857 C 76.250923 42.467631 77.851093 43.602816 80.737115 43.602816 C 82.072322 43.602816 83.173738 43.293692 84.041362 42.675445 C 84.908987 42.044209 85.3428 41.241526 85.3428 40.267396 C 85.3428 39.290669 84.620645 38.513963 83.178933 37.939876 C 81.734624 37.352801 79.988983 36.864437 77.936817 36.474785 C 75.897639 36.072145 73.842875 35.57339 71.769927 34.975924 C 69.70737 34.370665 67.956534 33.321203 66.512225 31.83533 C 65.070513 30.349458 64.348358 28.406394 64.348358 26.008736 Z M 124.853497 40.199857 C 126.503023 38.604882 127.326488 36.344901 127.326488 33.414719 C 127.326488 30.474147 126.503023 28.216764 124.853497 26.645168 C 123.214362 25.060584 121.325849 24.268291 119.190557 24.268291 C 117.063058 24.268291 115.174545 25.070974 113.525019 26.67634 C 111.888481 28.271315 111.067615 30.539089 111.067615 33.479661 C 111.067615 36.409843 111.888481 38.659433 113.525019 40.233627 C 115.174545 41.80782 117.063058 42.592319 119.190557 42.592319 C 121.325849 42.592319 123.214362 41.794832 124.853497 40.199857 Z M 104.396775 47.133062 C 101.108113 43.574242 99.463783 39.017913 99.463783 33.464075 C 99.463783 27.90764 101.108113 23.346115 104.396775 19.776904 C 107.682839 16.197303 111.691058 14.404904 116.421431 14.404904 C 121.164793 14.404904 124.798946 16.158338 127.326488 19.662607 L 127.326488 14.797154 L 138.735494 14.797154 L 138.735494 52.001112 L 127.326488 52.001112 L 127.326488 46.59794 C 124.57035 50.512642 120.881646 52.471292 116.260375 52.471292 C 111.639104 52.471292 107.682839 50.691882 104.396775 47.133062 Z M 172.331276 14.797154 L 183.724696 14.797154 L 183.724696 52.001112 L 172.331276 52.001112 L 172.331276 46.532998 C 169.967388 50.4477 166.208547 52.40635 161.054752 52.40635 C 156.789363 52.40635 153.33445 50.98542 150.687415 48.143559 C 148.050771 45.28871 146.733747 41.420766 146.733747 36.539727 L 146.733747 14.797154 L 158.059628 14.797154 L 158.059628 35.009694 C 158.059628 37.407352 158.693462 39.262095 159.963727 40.57652 C 161.233992 41.877957 162.974437 42.527377 165.187659 42.527377 C 167.411272 42.527377 169.15951 41.877957 170.427178 40.57652 C 171.697443 39.262095 172.331276 37.407352 172.331276 35.009694 Z M 194.47649 47.28113 C 191.037163 43.808033 189.317499 39.186762 189.317499 33.414719 C 189.317499 27.632286 191.037163 23.021406 194.47649 19.582079 C 197.926207 16.132361 202.386422 14.404904 207.854537 14.404904 C 212.387486 14.404904 216.229454 15.529699 219.375243 17.774094 C 222.534021 20.021086 224.62775 23.231818 225.659028 27.408885 L 213.322651 27.408885 C 212.257603 25.185272 210.511962 24.073466 208.080535 24.073466 C 205.662096 24.073466 203.861904 24.9307 202.677362 26.645168 C 201.505809 28.346648 200.921331 30.598835 200.921331 33.399133 C 200.921331 36.196833 201.505809 38.454216 202.677362 40.168685 C 203.861904 41.883153 205.586763 42.740387 207.854537 42.740387 C 209.275467 42.740387 210.382078 42.496205 211.17437 42.007841 C 211.977053 41.519478 212.691415 40.651853 213.322651 39.402369 L 225.659028 39.402369 C 224.62775 43.395002 222.510642 46.574561 219.310301 48.941047 C 216.120351 51.294544 212.301763 52.471292 207.854537 52.471292 C 202.386422 52.471292 197.926207 50.741238 194.47649 47.28113 Z M 246.180693 52.471292 C 240.756739 52.471292 236.306915 50.730847 232.836416 47.24736 C 229.373709 43.753482 227.643655 39.12182 227.643655 33.349777 C 227.643655 27.567344 229.363319 22.966854 232.802646 19.548309 C 236.252363 16.119372 240.712578 14.404904 246.180693 14.404904 C 251.648807 14.404904 256.179159 16.093396 259.769151 19.467781 C 263.372132 22.842166 265.172324 27.528379 265.172324 33.529017 C 265.172324 34.820064 265.0866 36.022789 264.912556 37.142389 L 239.312429 37.142389 C 239.541025 38.778926 240.273571 40.124524 241.510066 41.176584 C 242.756952 42.218253 244.102549 42.740387 245.546859 42.740387 C 246.988571 42.740387 248.06401 42.592319 248.767981 42.301379 C 249.48494 42.007841 250.009671 41.719499 250.34737 41.43895 C 250.68247 41.145412 251.116283 40.667439 251.648807 40.005031 L 263.985184 40.005031 C 262.909745 43.737896 260.774453 46.748606 257.571515 49.037161 C 254.371174 51.328314 250.575965 52.471292 246.180693 52.471292 Z M 253.308724 29.996174 C 253.134679 28.271315 252.381352 26.86597 251.046145 25.782738 C 249.713536 24.686518 248.134147 24.138408 246.310577 24.138408 C 244.487006 24.138408 242.951778 24.686518 241.704892 25.782738 C 240.468396 26.86597 239.69169 28.271315 239.377371 29.996174 Z M 253.308724 29.996174 " stroke="rgb(95.689392%, 95.689392%, 95.689392%)" stroke-width="2.49999" stroke-opacity="1" stroke-miterlimit="4"/><g fill="rgb(95.689392%, 95.689392%, 95.689392%)" fill-opacity="1"><g transform="translate(23.253976, 168.284666)"><g><path d="M 3.703125 -39.09375 C 3.703125 -44.039062 5.804688 -48.179688 10.015625 -51.515625 C 14.234375 -54.859375 19.929688 -56.53125 27.109375 -56.53125 C 34.296875 -56.53125 40.09375 -54.890625 44.5 -51.609375 C 48.914062 -48.335938 51.253906 -43.863281 51.515625 -38.1875 L 33.984375 -38.1875 C 33.773438 -40.125 33.101562 -41.441406 31.96875 -42.140625 C 30.832031 -42.847656 29.128906 -43.203125 26.859375 -43.203125 C 22.378906 -43.203125 20.140625 -41.832031 20.140625 -39.09375 C 20.140625 -36.613281 22.878906 -34.910156 28.359375 -33.984375 C 33.910156 -33.046875 38.957031 -31.609375 43.5 -29.671875 C 45.84375 -28.734375 47.796875 -27.175781 49.359375 -25 C 50.929688 -22.832031 51.71875 -20.179688 51.71875 -17.046875 C 51.71875 -11.828125 49.476562 -7.5625 45 -4.25 C 40.53125 -0.945312 34.882812 0.703125 28.0625 0.703125 C 21.25 0.703125 15.566406 -0.847656 11.015625 -3.953125 C 6.472656 -7.066406 4.003906 -11.660156 3.609375 -17.734375 L 21.15625 -17.734375 C 21.613281 -14.328125 24.015625 -12.625 28.359375 -12.625 C 30.367188 -12.625 32.023438 -13.09375 33.328125 -14.03125 C 34.628906 -14.96875 35.28125 -16.171875 35.28125 -17.640625 C 35.28125 -19.109375 34.191406 -20.273438 32.015625 -21.140625 C 29.847656 -22.015625 27.226562 -22.75 24.15625 -23.34375 C 21.082031 -23.945312 17.988281 -24.703125 14.875 -25.609375 C 11.769531 -26.515625 9.128906 -28.082031 6.953125 -30.3125 C 4.785156 -32.550781 3.703125 -35.476562 3.703125 -39.09375 Z M 3.703125 -39.09375 "/></g></g></g><g fill="rgb(95.689392%, 95.689392%, 95.689392%)" fill-opacity="1"><g transform="translate(78.883982, 168.284666)"><g><path d="M 41.09375 -17.546875 C 43.363281 -19.953125 44.5 -23.425781 44.5 -27.96875 C 44.5 -32.507812 43.328125 -35.960938 40.984375 -38.328125 C 38.648438 -40.703125 35.878906 -41.890625 32.671875 -41.890625 C 29.460938 -41.890625 26.707031 -40.703125 24.40625 -38.328125 C 22.101562 -35.960938 20.953125 -32.507812 20.953125 -27.96875 C 20.953125 -23.425781 22.132812 -19.953125 24.5 -17.546875 C 26.875 -15.140625 29.664062 -13.9375 32.875 -13.9375 C 36.082031 -13.9375 38.820312 -15.140625 41.09375 -17.546875 Z M 11.984375 -7.21875 C 6.335938 -12.5 3.515625 -19.445312 3.515625 -28.0625 C 3.515625 -36.6875 6.316406 -43.585938 11.921875 -48.765625 C 17.535156 -53.941406 24.484375 -56.53125 32.765625 -56.53125 C 41.054688 -56.53125 47.988281 -53.941406 53.5625 -48.765625 C 59.144531 -43.585938 61.9375 -36.6875 61.9375 -28.0625 C 61.9375 -19.445312 59.164062 -12.5 53.625 -7.21875 C 48.082031 -1.9375 41.164062 0.703125 32.875 0.703125 C 24.59375 0.703125 17.628906 -1.9375 11.984375 -7.21875 Z M 11.984375 -7.21875 "/></g></g></g><g fill="rgb(95.689392%, 95.689392%, 95.689392%)" fill-opacity="1"><g transform="translate(144.336936, 168.284666)"><g><path d="M 45.5 -55.9375 L 62.640625 -55.9375 L 62.640625 0 L 45.5 0 L 45.5 -8.21875 C 41.957031 -2.34375 36.3125 0.59375 28.5625 0.59375 C 22.144531 0.59375 16.945312 -1.539062 12.96875 -5.8125 C 9 -10.09375 7.015625 -15.90625 7.015625 -23.25 L 7.015625 -55.9375 L 24.0625 -55.9375 L 24.0625 -25.5625 C 24.0625 -21.945312 25.007812 -19.15625 26.90625 -17.1875 C 28.8125 -15.21875 31.4375 -14.234375 34.78125 -14.234375 C 38.125 -14.234375 40.742188 -15.21875 42.640625 -17.1875 C 44.546875 -19.15625 45.5 -21.945312 45.5 -25.5625 Z M 45.5 -55.9375 "/></g></g></g><g fill="rgb(95.689392%, 95.689392%, 95.689392%)" fill-opacity="1"><g transform="translate(214.500892, 168.284666)"><g><path d="M 24.65625 -55.9375 L 24.65625 -47.71875 C 28.195312 -53.59375 33.84375 -56.53125 41.59375 -56.53125 C 48.007812 -56.53125 53.203125 -54.390625 57.171875 -50.109375 C 61.148438 -45.835938 63.140625 -40.023438 63.140625 -32.671875 L 63.140625 0 L 46.109375 0 L 46.109375 -30.375 C 46.109375 -33.976562 45.15625 -36.765625 43.25 -38.734375 C 41.34375 -40.710938 38.71875 -41.703125 35.375 -41.703125 C 32.039062 -41.703125 29.421875 -40.710938 27.515625 -38.734375 C 25.609375 -36.765625 24.65625 -33.976562 24.65625 -30.375 L 24.65625 0 L 7.515625 0 L 7.515625 -55.9375 Z M 24.65625 -55.9375 "/></g></g></g><g fill="rgb(95.689392%, 95.689392%, 95.689392%)" fill-opacity="1"><g transform="translate(284.664847, 168.284666)"><g><path d="M 41.59375 -17.734375 C 44.070312 -20.140625 45.3125 -23.546875 45.3125 -27.953125 C 45.3125 -32.367188 44.070312 -35.765625 41.59375 -38.140625 C 39.125 -40.515625 36.285156 -41.703125 33.078125 -41.703125 C 29.867188 -41.703125 27.023438 -40.5 24.546875 -38.09375 C 22.078125 -35.6875 20.84375 -32.273438 20.84375 -27.859375 C 20.84375 -23.453125 22.078125 -20.0625 24.546875 -17.6875 C 27.023438 -15.320312 29.867188 -14.140625 33.078125 -14.140625 C 36.285156 -14.140625 39.125 -15.335938 41.59375 -17.734375 Z M 10.828125 -7.3125 C 5.878906 -12.65625 3.40625 -19.503906 3.40625 -27.859375 C 3.40625 -36.210938 5.878906 -43.078125 10.828125 -48.453125 C 15.773438 -53.835938 21.804688 -56.53125 28.921875 -56.53125 C 36.035156 -56.53125 41.5 -53.890625 45.3125 -48.609375 L 45.3125 -74.171875 L 62.453125 -74.171875 L 62.453125 0 L 45.3125 0 L 45.3125 -8.125 C 41.164062 -2.238281 35.617188 0.703125 28.671875 0.703125 C 21.722656 0.703125 15.773438 -1.96875 10.828125 -7.3125 Z M 10.828125 -7.3125 "/></g></g></g></svg>